<svg width="48" height="48" viewBox="0 0 48 48" fill="none" xmlns="http://www.w3.org/2000/svg">
<path d="M40 36C42.2 36 44 34.2 44 32V8C44 5.8 42.2 4 40 4H8C5.8 4 4 5.8 4 8V44L12 36H40ZM14 20C14 18.895 14.895 18 16 18C17.105 18 18 18.895 18 20C18 21.105 17.105 22 16 22C14.895 22 14 21.105 14 20ZM22 20C22 18.895 22.895 18 24 18C25.105 18 26 18.895 26 20C26 21.105 25.105 22 24 22C22.895 22 22 21.105 22 20ZM30 20C30 18.895 30.895 18 32 18C33.105 18 34 18.895 34 20C34 21.105 33.105 22 32 22C30.895 22 30 21.105 30 20Z" fill="white"/>
</svg>
